<mxfile host="app.diagrams.net" agent="Mozilla/5.0 (Windows NT 10.0; Win64; x64) AppleWebKit/537.36 (KHTML, like Gecko) Chrome/131.0.0.0 Safari/537.36" version="25.0.3" pages="2">
  <diagram name="Messaging" id="6dypnx5l7ETPkBPUX7ll">
    <mxGraphModel dx="1290" dy="653" grid="0" gridSize="10" guides="1" tooltips="1" connect="1" arrows="1" fold="1" page="0" pageScale="1" pageWidth="850" pageHeight="1100" math="0" shadow="0">
      <root>
        <mxCell id="0" />
        <mxCell id="1" parent="0" />
        <mxCell id="MLAJJkFEL0NLe4_yy2pO-10" style="edgeStyle=orthogonalEdgeStyle;rounded=0;orthogonalLoop=1;jettySize=auto;html=1;flowAnimation=1;" parent="1" source="MLAJJkFEL0NLe4_yy2pO-3" target="MLAJJkFEL0NLe4_yy2pO-9" edge="1">
          <mxGeometry relative="1" as="geometry" />
        </mxCell>
        <mxCell id="MLAJJkFEL0NLe4_yy2pO-3" value="" style="html=1;verticalLabelPosition=bottom;align=center;labelBackgroundColor=#ffffff;verticalAlign=top;strokeWidth=2;strokeColor=#0080F0;shadow=0;dashed=0;shape=mxgraph.ios7.icons.smartphone;" parent="1" vertex="1">
          <mxGeometry x="113" y="153" width="18" height="30" as="geometry" />
        </mxCell>
        <mxCell id="MLAJJkFEL0NLe4_yy2pO-4" value="" style="html=1;verticalLabelPosition=bottom;align=center;labelBackgroundColor=#ffffff;verticalAlign=top;strokeWidth=2;strokeColor=#0080F0;shadow=0;dashed=0;shape=mxgraph.ios7.icons.smartphone;" parent="1" vertex="1">
          <mxGeometry x="113" y="238" width="18" height="30" as="geometry" />
        </mxCell>
        <mxCell id="MLAJJkFEL0NLe4_yy2pO-5" value="" style="html=1;verticalLabelPosition=bottom;align=center;labelBackgroundColor=#ffffff;verticalAlign=top;strokeWidth=2;strokeColor=#0080F0;shadow=0;dashed=0;shape=mxgraph.ios7.icons.smartphone;" parent="1" vertex="1">
          <mxGeometry x="113" y="330" width="18" height="30" as="geometry" />
        </mxCell>
        <mxCell id="MLAJJkFEL0NLe4_yy2pO-6" value="User 1" style="text;html=1;align=center;verticalAlign=middle;whiteSpace=wrap;rounded=0;" parent="1" vertex="1">
          <mxGeometry x="68" y="176" width="60" height="30" as="geometry" />
        </mxCell>
        <mxCell id="MLAJJkFEL0NLe4_yy2pO-7" value="User 2" style="text;html=1;align=center;verticalAlign=middle;whiteSpace=wrap;rounded=0;" parent="1" vertex="1">
          <mxGeometry x="68" y="277" width="60" height="30" as="geometry" />
        </mxCell>
        <mxCell id="MLAJJkFEL0NLe4_yy2pO-8" value="User 3" style="text;html=1;align=center;verticalAlign=middle;whiteSpace=wrap;rounded=0;" parent="1" vertex="1">
          <mxGeometry x="66" y="368" width="60" height="30" as="geometry" />
        </mxCell>
        <mxCell id="MLAJJkFEL0NLe4_yy2pO-9" value="" style="outlineConnect=0;dashed=0;verticalLabelPosition=bottom;verticalAlign=top;align=center;html=1;shape=mxgraph.aws3.application_load_balancer;fillColor=#F58536;gradientColor=none;" parent="1" vertex="1">
          <mxGeometry x="317" y="217" width="69" height="72" as="geometry" />
        </mxCell>
        <mxCell id="MLAJJkFEL0NLe4_yy2pO-11" style="edgeStyle=orthogonalEdgeStyle;rounded=0;orthogonalLoop=1;jettySize=auto;html=1;entryX=0;entryY=0.5;entryDx=0;entryDy=0;entryPerimeter=0;flowAnimation=1;" parent="1" source="MLAJJkFEL0NLe4_yy2pO-4" target="MLAJJkFEL0NLe4_yy2pO-9" edge="1">
          <mxGeometry relative="1" as="geometry" />
        </mxCell>
        <mxCell id="MLAJJkFEL0NLe4_yy2pO-12" style="edgeStyle=orthogonalEdgeStyle;rounded=0;orthogonalLoop=1;jettySize=auto;html=1;entryX=0.5;entryY=1;entryDx=0;entryDy=0;entryPerimeter=0;flowAnimation=1;" parent="1" source="MLAJJkFEL0NLe4_yy2pO-5" target="MLAJJkFEL0NLe4_yy2pO-9" edge="1">
          <mxGeometry relative="1" as="geometry" />
        </mxCell>
        <mxCell id="MLAJJkFEL0NLe4_yy2pO-13" value="" style="image;html=1;image=img/lib/clip_art/computers/Server_Rack_128x128.png" parent="1" vertex="1">
          <mxGeometry x="503" y="208" width="51" height="61" as="geometry" />
        </mxCell>
        <mxCell id="MLAJJkFEL0NLe4_yy2pO-14" value="" style="image;html=1;image=img/lib/clip_art/computers/Server_Rack_128x128.png" parent="1" vertex="1">
          <mxGeometry x="513" y="218" width="51" height="61" as="geometry" />
        </mxCell>
        <mxCell id="MLAJJkFEL0NLe4_yy2pO-36" style="edgeStyle=orthogonalEdgeStyle;rounded=0;orthogonalLoop=1;jettySize=auto;html=1;flowAnimation=1;" parent="1" source="MLAJJkFEL0NLe4_yy2pO-15" target="MLAJJkFEL0NLe4_yy2pO-35" edge="1">
          <mxGeometry relative="1" as="geometry">
            <Array as="points">
              <mxPoint x="549" y="294" />
              <mxPoint x="635" y="294" />
            </Array>
          </mxGeometry>
        </mxCell>
        <mxCell id="MLAJJkFEL0NLe4_yy2pO-15" value="" style="image;html=1;image=img/lib/clip_art/computers/Server_Rack_128x128.png" parent="1" vertex="1">
          <mxGeometry x="523" y="228" width="51" height="61" as="geometry" />
        </mxCell>
        <mxCell id="MLAJJkFEL0NLe4_yy2pO-17" value="Connection Handlers" style="text;html=1;align=center;verticalAlign=middle;resizable=0;points=[];autosize=1;strokeColor=none;fillColor=none;" parent="1" vertex="1">
          <mxGeometry x="461" y="295" width="130" height="26" as="geometry" />
        </mxCell>
        <mxCell id="MLAJJkFEL0NLe4_yy2pO-18" value="WebSocket" style="text;html=1;align=center;verticalAlign=middle;whiteSpace=wrap;rounded=0;" parent="1" vertex="1">
          <mxGeometry x="249" y="131" width="60" height="30" as="geometry" />
        </mxCell>
        <mxCell id="MLAJJkFEL0NLe4_yy2pO-21" value="" style="image;html=1;image=img/lib/clip_art/computers/Server_Rack_128x128.png" parent="1" vertex="1">
          <mxGeometry x="758" y="212.5" width="51" height="61" as="geometry" />
        </mxCell>
        <mxCell id="MLAJJkFEL0NLe4_yy2pO-22" value="" style="image;html=1;image=img/lib/clip_art/computers/Server_Rack_128x128.png" parent="1" vertex="1">
          <mxGeometry x="768" y="222.5" width="51" height="61" as="geometry" />
        </mxCell>
        <mxCell id="MLAJJkFEL0NLe4_yy2pO-40" style="edgeStyle=orthogonalEdgeStyle;rounded=0;orthogonalLoop=1;jettySize=auto;html=1;flowAnimation=1;" parent="1" source="MLAJJkFEL0NLe4_yy2pO-23" target="MLAJJkFEL0NLe4_yy2pO-39" edge="1">
          <mxGeometry relative="1" as="geometry" />
        </mxCell>
        <mxCell id="MLAJJkFEL0NLe4_yy2pO-23" value="" style="image;html=1;image=img/lib/clip_art/computers/Server_Rack_128x128.png" parent="1" vertex="1">
          <mxGeometry x="778" y="232.5" width="51" height="61" as="geometry" />
        </mxCell>
        <mxCell id="MLAJJkFEL0NLe4_yy2pO-27" value="Message Services" style="text;html=1;align=center;verticalAlign=middle;whiteSpace=wrap;rounded=0;" parent="1" vertex="1">
          <mxGeometry x="733" y="289" width="60" height="30" as="geometry" />
        </mxCell>
        <mxCell id="MLAJJkFEL0NLe4_yy2pO-28" value="" style="sketch=0;aspect=fixed;pointerEvents=1;shadow=0;dashed=0;html=1;strokeColor=none;labelPosition=center;verticalLabelPosition=bottom;verticalAlign=top;align=center;fillColor=#00188D;shape=mxgraph.azure.queue_generic" parent="1" vertex="1">
          <mxGeometry x="632" y="253" width="50" height="15" as="geometry" />
        </mxCell>
        <mxCell id="MLAJJkFEL0NLe4_yy2pO-29" value="" style="shape=cylinder3;whiteSpace=wrap;html=1;boundedLbl=1;backgroundOutline=1;size=15;" parent="1" vertex="1">
          <mxGeometry x="135" y="101" width="19" height="52" as="geometry" />
        </mxCell>
        <mxCell id="MLAJJkFEL0NLe4_yy2pO-30" value="" style="shape=cylinder3;whiteSpace=wrap;html=1;boundedLbl=1;backgroundOutline=1;size=15;" parent="1" vertex="1">
          <mxGeometry x="912" y="213" width="60" height="80" as="geometry" />
        </mxCell>
        <mxCell id="MLAJJkFEL0NLe4_yy2pO-31" value="Sqlite to store data when internet disconnect" style="text;html=1;align=center;verticalAlign=middle;whiteSpace=wrap;rounded=0;" parent="1" vertex="1">
          <mxGeometry x="173" y="89" width="180" height="30" as="geometry" />
        </mxCell>
        <mxCell id="MLAJJkFEL0NLe4_yy2pO-32" style="edgeStyle=orthogonalEdgeStyle;rounded=0;orthogonalLoop=1;jettySize=auto;html=1;entryX=0;entryY=0.5;entryDx=0;entryDy=0;entryPerimeter=0;flowAnimation=1;" parent="1" source="MLAJJkFEL0NLe4_yy2pO-23" target="MLAJJkFEL0NLe4_yy2pO-30" edge="1">
          <mxGeometry relative="1" as="geometry" />
        </mxCell>
        <mxCell id="MLAJJkFEL0NLe4_yy2pO-33" value="Column Db(Cassendra)" style="text;html=1;align=center;verticalAlign=middle;whiteSpace=wrap;rounded=0;" parent="1" vertex="1">
          <mxGeometry x="914" y="300" width="60" height="30" as="geometry" />
        </mxCell>
        <mxCell id="MLAJJkFEL0NLe4_yy2pO-34" value="Use Cache to store the user info" style="text;html=1;align=center;verticalAlign=middle;whiteSpace=wrap;rounded=0;" parent="1" vertex="1">
          <mxGeometry x="540" y="176" width="118" height="30" as="geometry" />
        </mxCell>
        <mxCell id="MLAJJkFEL0NLe4_yy2pO-35" value="" style="image;sketch=0;aspect=fixed;html=1;points=[];align=center;fontSize=12;image=img/lib/mscae/Cache_Redis_Product.svg;" parent="1" vertex="1">
          <mxGeometry x="610" y="345" width="50" height="42" as="geometry" />
        </mxCell>
        <mxCell id="MLAJJkFEL0NLe4_yy2pO-37" value="" style="endArrow=classic;startArrow=classic;html=1;rounded=0;entryX=0;entryY=0.75;entryDx=0;entryDy=0;flowAnimation=1;" parent="1" target="MLAJJkFEL0NLe4_yy2pO-21" edge="1">
          <mxGeometry width="50" height="50" relative="1" as="geometry">
            <mxPoint x="692" y="261" as="sourcePoint" />
            <mxPoint x="748" y="219" as="targetPoint" />
          </mxGeometry>
        </mxCell>
        <mxCell id="MLAJJkFEL0NLe4_yy2pO-38" value="" style="endArrow=classic;startArrow=classic;html=1;rounded=0;exitX=1;exitY=0.5;exitDx=0;exitDy=0;flowAnimation=1;" parent="1" source="MLAJJkFEL0NLe4_yy2pO-15" edge="1">
          <mxGeometry width="50" height="50" relative="1" as="geometry">
            <mxPoint x="655" y="317" as="sourcePoint" />
            <mxPoint x="630" y="259" as="targetPoint" />
          </mxGeometry>
        </mxCell>
        <mxCell id="MLAJJkFEL0NLe4_yy2pO-39" value="" style="outlineConnect=0;dashed=0;verticalLabelPosition=bottom;verticalAlign=top;align=center;html=1;shape=mxgraph.aws3.s3;fillColor=#E05243;gradientColor=none;" parent="1" vertex="1">
          <mxGeometry x="796" y="351" width="60" height="79" as="geometry" />
        </mxCell>
        <mxCell id="MLAJJkFEL0NLe4_yy2pO-41" value="To Store Images/Videos" style="text;html=1;align=center;verticalAlign=middle;resizable=0;points=[];autosize=1;strokeColor=none;fillColor=none;" parent="1" vertex="1">
          <mxGeometry x="760" y="442" width="145" height="26" as="geometry" />
        </mxCell>
        <mxCell id="h8iS-cJefpT7HeQby520-1" value="" style="endArrow=classic;startArrow=classic;html=1;rounded=0;exitX=1;exitY=0.5;exitDx=0;exitDy=0;exitPerimeter=0;entryX=0;entryY=0.75;entryDx=0;entryDy=0;flowAnimation=1;" edge="1" parent="1" source="MLAJJkFEL0NLe4_yy2pO-9" target="MLAJJkFEL0NLe4_yy2pO-13">
          <mxGeometry width="50" height="50" relative="1" as="geometry">
            <mxPoint x="380" y="383" as="sourcePoint" />
            <mxPoint x="430" y="333" as="targetPoint" />
          </mxGeometry>
        </mxCell>
      </root>
    </mxGraphModel>
  </diagram>
  <diagram id="uYf0SSHExDyEp5kEb0Kn" name="Twitter">
    <mxGraphModel dx="3267" dy="1851" grid="0" gridSize="10" guides="1" tooltips="1" connect="1" arrows="1" fold="1" page="0" pageScale="1" pageWidth="850" pageHeight="1100" math="0" shadow="0">
      <root>
        <mxCell id="0" />
        <mxCell id="1" parent="0" />
        <mxCell id="AE5Dq45fooWx5qyHSBE6-3" style="edgeStyle=orthogonalEdgeStyle;rounded=0;orthogonalLoop=1;jettySize=auto;html=1;" edge="1" parent="1" source="AE5Dq45fooWx5qyHSBE6-1" target="AE5Dq45fooWx5qyHSBE6-2">
          <mxGeometry relative="1" as="geometry" />
        </mxCell>
        <mxCell id="AE5Dq45fooWx5qyHSBE6-1" value="Actor" style="shape=umlActor;verticalLabelPosition=bottom;verticalAlign=top;html=1;outlineConnect=0;" vertex="1" parent="1">
          <mxGeometry x="-196" y="41" width="30" height="60" as="geometry" />
        </mxCell>
        <mxCell id="AE5Dq45fooWx5qyHSBE6-6" style="edgeStyle=orthogonalEdgeStyle;rounded=0;orthogonalLoop=1;jettySize=auto;html=1;" edge="1" parent="1" source="AE5Dq45fooWx5qyHSBE6-2">
          <mxGeometry relative="1" as="geometry">
            <mxPoint x="71.60003662109375" y="71" as="targetPoint" />
          </mxGeometry>
        </mxCell>
        <mxCell id="AE5Dq45fooWx5qyHSBE6-2" value="" style="points=[];aspect=fixed;html=1;align=center;shadow=0;dashed=0;fillColor=#FF6A00;strokeColor=none;shape=mxgraph.alibaba_cloud.alb_application_load_balancer_01;" vertex="1" parent="1">
          <mxGeometry x="-21" y="50.900000000000006" width="47.400000000000006" height="40.2" as="geometry" />
        </mxCell>
        <mxCell id="AE5Dq45fooWx5qyHSBE6-30" style="edgeStyle=orthogonalEdgeStyle;rounded=0;orthogonalLoop=1;jettySize=auto;html=1;entryX=0.143;entryY=0.726;entryDx=0;entryDy=0;entryPerimeter=0;" edge="1" parent="1" source="AE5Dq45fooWx5qyHSBE6-4">
          <mxGeometry relative="1" as="geometry">
            <mxPoint x="-5.22180000000003" y="412.1851999999999" as="targetPoint" />
            <Array as="points">
              <mxPoint x="-118" y="412" />
            </Array>
          </mxGeometry>
        </mxCell>
        <mxCell id="AE5Dq45fooWx5qyHSBE6-4" value="" style="html=1;verticalLabelPosition=bottom;labelBackgroundColor=#ffffff;verticalAlign=top;shadow=0;dashed=0;strokeWidth=1;shape=mxgraph.ios7.misc.ipad7inch;strokeColor=#c0c0c0;" vertex="1" parent="1">
          <mxGeometry x="-129" y="47" width="21" height="48" as="geometry" />
        </mxCell>
        <mxCell id="AE5Dq45fooWx5qyHSBE6-10" style="edgeStyle=orthogonalEdgeStyle;rounded=0;orthogonalLoop=1;jettySize=auto;html=1;" edge="1" parent="1" source="AE5Dq45fooWx5qyHSBE6-5" target="AE5Dq45fooWx5qyHSBE6-8">
          <mxGeometry relative="1" as="geometry" />
        </mxCell>
        <mxCell id="AE5Dq45fooWx5qyHSBE6-14" style="edgeStyle=orthogonalEdgeStyle;rounded=0;orthogonalLoop=1;jettySize=auto;html=1;" edge="1" parent="1" source="AE5Dq45fooWx5qyHSBE6-5">
          <mxGeometry relative="1" as="geometry">
            <mxPoint x="148.40008544921875" y="141" as="targetPoint" />
          </mxGeometry>
        </mxCell>
        <mxCell id="AE5Dq45fooWx5qyHSBE6-75" style="edgeStyle=orthogonalEdgeStyle;rounded=0;orthogonalLoop=1;jettySize=auto;html=1;entryX=0.5;entryY=0;entryDx=0;entryDy=0;" edge="1" parent="1" source="AE5Dq45fooWx5qyHSBE6-5" target="AE5Dq45fooWx5qyHSBE6-74">
          <mxGeometry relative="1" as="geometry">
            <Array as="points">
              <mxPoint x="118" y="-6" />
              <mxPoint x="816" y="-6" />
            </Array>
          </mxGeometry>
        </mxCell>
        <mxCell id="AE5Dq45fooWx5qyHSBE6-5" value="" style="image;html=1;image=img/lib/clip_art/computers/Server_Rack_128x128.png" vertex="1" parent="1">
          <mxGeometry x="78" y="41" width="80" height="80" as="geometry" />
        </mxCell>
        <mxCell id="AE5Dq45fooWx5qyHSBE6-7" value="User Service(Exposes to get user information)" style="text;html=1;align=center;verticalAlign=middle;resizable=0;points=[];autosize=1;strokeColor=none;fillColor=none;" vertex="1" parent="1">
          <mxGeometry x="-33" y="12" width="263" height="26" as="geometry" />
        </mxCell>
        <mxCell id="AE5Dq45fooWx5qyHSBE6-8" value="" style="shape=cylinder3;whiteSpace=wrap;html=1;boundedLbl=1;backgroundOutline=1;size=15;" vertex="1" parent="1">
          <mxGeometry x="210" y="44" width="39" height="57" as="geometry" />
        </mxCell>
        <mxCell id="AE5Dq45fooWx5qyHSBE6-11" value="SQL" style="text;html=1;align=center;verticalAlign=middle;resizable=0;points=[];autosize=1;strokeColor=none;fillColor=none;" vertex="1" parent="1">
          <mxGeometry x="239" y="24.9" width="42" height="26" as="geometry" />
        </mxCell>
        <mxCell id="AE5Dq45fooWx5qyHSBE6-12" value="" style="image;sketch=0;aspect=fixed;html=1;points=[];align=center;fontSize=12;image=img/lib/mscae/Cache_Redis_Product.svg;" vertex="1" parent="1">
          <mxGeometry x="155" y="113" width="50" height="42" as="geometry" />
        </mxCell>
        <mxCell id="AE5Dq45fooWx5qyHSBE6-15" value="Login" style="text;html=1;align=center;verticalAlign=middle;resizable=0;points=[];autosize=1;strokeColor=none;fillColor=none;" vertex="1" parent="1">
          <mxGeometry x="-94" y="79" width="47" height="26" as="geometry" />
        </mxCell>
        <mxCell id="AE5Dq45fooWx5qyHSBE6-16" value="UserInfo, Followers, Following , last seen etc" style="text;html=1;align=center;verticalAlign=middle;resizable=0;points=[];autosize=1;strokeColor=none;fillColor=none;" vertex="1" parent="1">
          <mxGeometry x="204" y="105" width="256" height="26" as="geometry" />
        </mxCell>
        <mxCell id="AE5Dq45fooWx5qyHSBE6-21" style="edgeStyle=orthogonalEdgeStyle;rounded=0;orthogonalLoop=1;jettySize=auto;html=1;" edge="1" parent="1" source="AE5Dq45fooWx5qyHSBE6-17" target="AE5Dq45fooWx5qyHSBE6-18">
          <mxGeometry relative="1" as="geometry" />
        </mxCell>
        <mxCell id="AE5Dq45fooWx5qyHSBE6-17" value="" style="points=[];aspect=fixed;html=1;align=center;shadow=0;dashed=0;fillColor=#FF6A00;strokeColor=none;shape=mxgraph.alibaba_cloud.alb_application_load_balancer_01;" vertex="1" parent="1">
          <mxGeometry x="-16" y="230" width="47.400000000000006" height="40.2" as="geometry" />
        </mxCell>
        <mxCell id="AE5Dq45fooWx5qyHSBE6-27" style="edgeStyle=orthogonalEdgeStyle;rounded=0;orthogonalLoop=1;jettySize=auto;html=1;" edge="1" parent="1" source="AE5Dq45fooWx5qyHSBE6-18" target="AE5Dq45fooWx5qyHSBE6-12">
          <mxGeometry relative="1" as="geometry" />
        </mxCell>
        <mxCell id="AE5Dq45fooWx5qyHSBE6-76" style="edgeStyle=orthogonalEdgeStyle;rounded=0;orthogonalLoop=1;jettySize=auto;html=1;" edge="1" parent="1" source="AE5Dq45fooWx5qyHSBE6-18" target="AE5Dq45fooWx5qyHSBE6-74">
          <mxGeometry relative="1" as="geometry">
            <Array as="points">
              <mxPoint x="477" y="282" />
              <mxPoint x="477" y="282" />
            </Array>
          </mxGeometry>
        </mxCell>
        <mxCell id="AE5Dq45fooWx5qyHSBE6-91" style="edgeStyle=orthogonalEdgeStyle;rounded=0;orthogonalLoop=1;jettySize=auto;html=1;entryX=0.25;entryY=0;entryDx=0;entryDy=0;" edge="1" parent="1" source="AE5Dq45fooWx5qyHSBE6-18" target="AE5Dq45fooWx5qyHSBE6-86">
          <mxGeometry relative="1" as="geometry">
            <Array as="points">
              <mxPoint x="126" y="300" />
              <mxPoint x="354" y="300" />
              <mxPoint x="354" y="575" />
              <mxPoint x="720" y="575" />
            </Array>
          </mxGeometry>
        </mxCell>
        <mxCell id="AE5Dq45fooWx5qyHSBE6-18" value="" style="image;html=1;image=img/lib/clip_art/computers/Server_Rack_128x128.png" vertex="1" parent="1">
          <mxGeometry x="86" y="213" width="80" height="80" as="geometry" />
        </mxCell>
        <mxCell id="AE5Dq45fooWx5qyHSBE6-19" style="edgeStyle=orthogonalEdgeStyle;rounded=0;orthogonalLoop=1;jettySize=auto;html=1;entryX=0.093;entryY=0.831;entryDx=0;entryDy=0;entryPerimeter=0;exitX=0.41;exitY=1.042;exitDx=0;exitDy=0;exitPerimeter=0;" edge="1" parent="1" source="AE5Dq45fooWx5qyHSBE6-4" target="AE5Dq45fooWx5qyHSBE6-17">
          <mxGeometry relative="1" as="geometry">
            <mxPoint x="-121" y="137" as="sourcePoint" />
            <Array as="points">
              <mxPoint x="-120" y="263" />
            </Array>
          </mxGeometry>
        </mxCell>
        <mxCell id="AE5Dq45fooWx5qyHSBE6-20" value="Follow" style="text;html=1;align=center;verticalAlign=middle;resizable=0;points=[];autosize=1;strokeColor=none;fillColor=none;" vertex="1" parent="1">
          <mxGeometry x="-118" y="173" width="53" height="26" as="geometry" />
        </mxCell>
        <mxCell id="AE5Dq45fooWx5qyHSBE6-22" value="Graph Service(Exposes endpoints for following secnearios)" style="text;html=1;align=center;verticalAlign=middle;resizable=0;points=[];autosize=1;strokeColor=none;fillColor=none;" vertex="1" parent="1">
          <mxGeometry x="-72" y="184.1" width="333" height="26" as="geometry" />
        </mxCell>
        <mxCell id="AE5Dq45fooWx5qyHSBE6-23" value="" style="shape=cylinder3;whiteSpace=wrap;html=1;boundedLbl=1;backgroundOutline=1;size=15;" vertex="1" parent="1">
          <mxGeometry x="217" y="221.6" width="39" height="57" as="geometry" />
        </mxCell>
        <mxCell id="AE5Dq45fooWx5qyHSBE6-24" style="edgeStyle=orthogonalEdgeStyle;rounded=0;orthogonalLoop=1;jettySize=auto;html=1;entryX=0;entryY=0.5;entryDx=0;entryDy=0;entryPerimeter=0;" edge="1" parent="1" source="AE5Dq45fooWx5qyHSBE6-18" target="AE5Dq45fooWx5qyHSBE6-23">
          <mxGeometry relative="1" as="geometry" />
        </mxCell>
        <mxCell id="AE5Dq45fooWx5qyHSBE6-25" value="Graph DB" style="text;html=1;align=center;verticalAlign=middle;resizable=0;points=[];autosize=1;strokeColor=none;fillColor=none;" vertex="1" parent="1">
          <mxGeometry x="227" y="195.6" width="71" height="26" as="geometry" />
        </mxCell>
        <mxCell id="AE5Dq45fooWx5qyHSBE6-31" value="Other User&lt;br&gt;Flow/Updates" style="text;html=1;align=center;verticalAlign=middle;resizable=0;points=[];autosize=1;strokeColor=none;fillColor=none;" vertex="1" parent="1">
          <mxGeometry x="-121" y="307" width="91" height="41" as="geometry" />
        </mxCell>
        <mxCell id="AE5Dq45fooWx5qyHSBE6-34" style="edgeStyle=orthogonalEdgeStyle;rounded=0;orthogonalLoop=1;jettySize=auto;html=1;" edge="1" parent="1" source="AE5Dq45fooWx5qyHSBE6-32">
          <mxGeometry relative="1" as="geometry">
            <mxPoint x="81.2000732421875" y="411.0999999999999" as="targetPoint" />
          </mxGeometry>
        </mxCell>
        <mxCell id="AE5Dq45fooWx5qyHSBE6-36" style="edgeStyle=orthogonalEdgeStyle;rounded=0;orthogonalLoop=1;jettySize=auto;html=1;" edge="1" parent="1" source="AE5Dq45fooWx5qyHSBE6-32" target="AE5Dq45fooWx5qyHSBE6-35">
          <mxGeometry relative="1" as="geometry">
            <Array as="points">
              <mxPoint x="19" y="515" />
            </Array>
          </mxGeometry>
        </mxCell>
        <mxCell id="AE5Dq45fooWx5qyHSBE6-32" value="" style="points=[];aspect=fixed;html=1;align=center;shadow=0;dashed=0;fillColor=#FF6A00;strokeColor=none;shape=mxgraph.alibaba_cloud.alb_application_load_balancer_01;" vertex="1" parent="1">
          <mxGeometry x="-5" y="391" width="47.400000000000006" height="40.2" as="geometry" />
        </mxCell>
        <mxCell id="AE5Dq45fooWx5qyHSBE6-33" value="" style="image;html=1;image=img/lib/clip_art/computers/Server_Rack_128x128.png" vertex="1" parent="1">
          <mxGeometry x="87" y="367" width="80" height="80" as="geometry" />
        </mxCell>
        <mxCell id="AE5Dq45fooWx5qyHSBE6-35" value="" style="image;html=1;image=img/lib/clip_art/computers/Server_Rack_128x128.png" vertex="1" parent="1">
          <mxGeometry x="93" y="485" width="80" height="80" as="geometry" />
        </mxCell>
        <mxCell id="AE5Dq45fooWx5qyHSBE6-37" value="Analytics Service" style="text;html=1;align=center;verticalAlign=middle;resizable=0;points=[];autosize=1;strokeColor=none;fillColor=none;" vertex="1" parent="1">
          <mxGeometry x="86" y="323" width="109" height="26" as="geometry" />
        </mxCell>
        <mxCell id="AE5Dq45fooWx5qyHSBE6-38" value="Live User Websocket&lt;br&gt;Handler" style="text;html=1;align=center;verticalAlign=middle;resizable=0;points=[];autosize=1;strokeColor=none;fillColor=none;" vertex="1" parent="1">
          <mxGeometry x="61.5" y="442" width="131" height="41" as="geometry" />
        </mxCell>
        <mxCell id="AE5Dq45fooWx5qyHSBE6-39" value="" style="sketch=0;aspect=fixed;pointerEvents=1;shadow=0;dashed=0;html=1;strokeColor=none;labelPosition=center;verticalLabelPosition=bottom;verticalAlign=top;align=center;fillColor=#00188D;shape=mxgraph.azure.queue_generic" vertex="1" parent="1">
          <mxGeometry x="488" y="297" width="94" height="28.2" as="geometry" />
        </mxCell>
        <mxCell id="AE5Dq45fooWx5qyHSBE6-40" style="edgeStyle=orthogonalEdgeStyle;rounded=0;orthogonalLoop=1;jettySize=auto;html=1;entryX=0.234;entryY=0;entryDx=0;entryDy=0;entryPerimeter=0;" edge="1" parent="1" source="AE5Dq45fooWx5qyHSBE6-5" target="AE5Dq45fooWx5qyHSBE6-39">
          <mxGeometry relative="1" as="geometry" />
        </mxCell>
        <mxCell id="AE5Dq45fooWx5qyHSBE6-41" style="edgeStyle=orthogonalEdgeStyle;rounded=0;orthogonalLoop=1;jettySize=auto;html=1;entryX=0.294;entryY=1.078;entryDx=0;entryDy=0;entryPerimeter=0;" edge="1" parent="1" source="AE5Dq45fooWx5qyHSBE6-33" target="AE5Dq45fooWx5qyHSBE6-39">
          <mxGeometry relative="1" as="geometry" />
        </mxCell>
        <mxCell id="AE5Dq45fooWx5qyHSBE6-42" style="edgeStyle=orthogonalEdgeStyle;rounded=0;orthogonalLoop=1;jettySize=auto;html=1;entryX=0.5;entryY=1;entryDx=0;entryDy=0;entryPerimeter=0;" edge="1" parent="1" source="AE5Dq45fooWx5qyHSBE6-35" target="AE5Dq45fooWx5qyHSBE6-39">
          <mxGeometry relative="1" as="geometry" />
        </mxCell>
        <mxCell id="AE5Dq45fooWx5qyHSBE6-44" style="edgeStyle=orthogonalEdgeStyle;rounded=0;orthogonalLoop=1;jettySize=auto;html=1;entryX=0.005;entryY=0.97;entryDx=0;entryDy=0;entryPerimeter=0;" edge="1" parent="1" source="AE5Dq45fooWx5qyHSBE6-18" target="AE5Dq45fooWx5qyHSBE6-39">
          <mxGeometry relative="1" as="geometry">
            <Array as="points">
              <mxPoint x="126" y="320" />
              <mxPoint x="489" y="320" />
            </Array>
          </mxGeometry>
        </mxCell>
        <mxCell id="AE5Dq45fooWx5qyHSBE6-45" value="Actor" style="shape=umlActor;verticalLabelPosition=bottom;verticalAlign=top;html=1;outlineConnect=0;" vertex="1" parent="1">
          <mxGeometry x="-196" y="633" width="30" height="60" as="geometry" />
        </mxCell>
        <mxCell id="AE5Dq45fooWx5qyHSBE6-49" style="edgeStyle=orthogonalEdgeStyle;rounded=0;orthogonalLoop=1;jettySize=auto;html=1;" edge="1" parent="1" source="AE5Dq45fooWx5qyHSBE6-46">
          <mxGeometry relative="1" as="geometry">
            <mxPoint x="3.600067138671875" y="663" as="targetPoint" />
          </mxGeometry>
        </mxCell>
        <mxCell id="AE5Dq45fooWx5qyHSBE6-46" value="" style="html=1;verticalLabelPosition=bottom;labelBackgroundColor=#ffffff;verticalAlign=top;shadow=0;dashed=0;strokeWidth=1;shape=mxgraph.ios7.misc.ipad7inch;strokeColor=#c0c0c0;" vertex="1" parent="1">
          <mxGeometry x="-98" y="639" width="21" height="48" as="geometry" />
        </mxCell>
        <mxCell id="AE5Dq45fooWx5qyHSBE6-47" style="edgeStyle=orthogonalEdgeStyle;rounded=0;orthogonalLoop=1;jettySize=auto;html=1;entryX=-0.114;entryY=0.5;entryDx=0;entryDy=0;entryPerimeter=0;" edge="1" parent="1" source="AE5Dq45fooWx5qyHSBE6-45" target="AE5Dq45fooWx5qyHSBE6-46">
          <mxGeometry relative="1" as="geometry" />
        </mxCell>
        <mxCell id="AE5Dq45fooWx5qyHSBE6-52" style="edgeStyle=orthogonalEdgeStyle;rounded=0;orthogonalLoop=1;jettySize=auto;html=1;" edge="1" parent="1" source="AE5Dq45fooWx5qyHSBE6-48">
          <mxGeometry relative="1" as="geometry">
            <mxPoint x="99.60003662109375" y="663" as="targetPoint" />
          </mxGeometry>
        </mxCell>
        <mxCell id="AE5Dq45fooWx5qyHSBE6-48" value="" style="points=[];aspect=fixed;html=1;align=center;shadow=0;dashed=0;fillColor=#FF6A00;strokeColor=none;shape=mxgraph.alibaba_cloud.alb_application_load_balancer_01;" vertex="1" parent="1">
          <mxGeometry x="4" y="641.5" width="50.7" height="43" as="geometry" />
        </mxCell>
        <mxCell id="AE5Dq45fooWx5qyHSBE6-88" style="edgeStyle=orthogonalEdgeStyle;rounded=0;orthogonalLoop=1;jettySize=auto;html=1;" edge="1" parent="1" source="AE5Dq45fooWx5qyHSBE6-50" target="AE5Dq45fooWx5qyHSBE6-86">
          <mxGeometry relative="1" as="geometry" />
        </mxCell>
        <mxCell id="AE5Dq45fooWx5qyHSBE6-96" style="edgeStyle=orthogonalEdgeStyle;rounded=0;orthogonalLoop=1;jettySize=auto;html=1;entryX=1;entryY=0.75;entryDx=0;entryDy=0;" edge="1" parent="1" source="AE5Dq45fooWx5qyHSBE6-50" target="AE5Dq45fooWx5qyHSBE6-35">
          <mxGeometry relative="1" as="geometry">
            <Array as="points">
              <mxPoint x="538" y="545" />
            </Array>
          </mxGeometry>
        </mxCell>
        <mxCell id="AE5Dq45fooWx5qyHSBE6-103" style="edgeStyle=orthogonalEdgeStyle;rounded=0;orthogonalLoop=1;jettySize=auto;html=1;" edge="1" parent="1" source="AE5Dq45fooWx5qyHSBE6-50" target="AE5Dq45fooWx5qyHSBE6-102">
          <mxGeometry relative="1" as="geometry" />
        </mxCell>
        <mxCell id="AE5Dq45fooWx5qyHSBE6-50" value="" style="sketch=0;aspect=fixed;pointerEvents=1;shadow=0;dashed=0;html=1;strokeColor=none;labelPosition=center;verticalLabelPosition=bottom;verticalAlign=top;align=center;fillColor=#00188D;shape=mxgraph.azure.queue_generic" vertex="1" parent="1">
          <mxGeometry x="491" y="679" width="92" height="27.6" as="geometry" />
        </mxCell>
        <mxCell id="AE5Dq45fooWx5qyHSBE6-55" style="edgeStyle=orthogonalEdgeStyle;rounded=0;orthogonalLoop=1;jettySize=auto;html=1;" edge="1" parent="1" source="AE5Dq45fooWx5qyHSBE6-51" target="AE5Dq45fooWx5qyHSBE6-54">
          <mxGeometry relative="1" as="geometry" />
        </mxCell>
        <mxCell id="AE5Dq45fooWx5qyHSBE6-63" style="edgeStyle=orthogonalEdgeStyle;rounded=0;orthogonalLoop=1;jettySize=auto;html=1;" edge="1" parent="1" source="AE5Dq45fooWx5qyHSBE6-51">
          <mxGeometry relative="1" as="geometry">
            <mxPoint x="486.800048828125" y="697" as="targetPoint" />
            <Array as="points">
              <mxPoint x="330" y="697" />
              <mxPoint x="330" y="698" />
            </Array>
          </mxGeometry>
        </mxCell>
        <mxCell id="AE5Dq45fooWx5qyHSBE6-67" style="edgeStyle=orthogonalEdgeStyle;rounded=0;orthogonalLoop=1;jettySize=auto;html=1;" edge="1" parent="1" source="AE5Dq45fooWx5qyHSBE6-51">
          <mxGeometry relative="1" as="geometry">
            <mxPoint x="133" y="742.6000366210938" as="targetPoint" />
          </mxGeometry>
        </mxCell>
        <mxCell id="AE5Dq45fooWx5qyHSBE6-51" value="" style="image;html=1;image=img/lib/clip_art/computers/Server_Rack_128x128.png" vertex="1" parent="1">
          <mxGeometry x="96" y="625.5" width="74" height="75" as="geometry" />
        </mxCell>
        <mxCell id="AE5Dq45fooWx5qyHSBE6-53" value="Tweet Handler" style="text;html=1;align=center;verticalAlign=middle;resizable=0;points=[];autosize=1;strokeColor=none;fillColor=none;" vertex="1" parent="1">
          <mxGeometry x="109" y="585" width="95" height="26" as="geometry" />
        </mxCell>
        <mxCell id="AE5Dq45fooWx5qyHSBE6-77" style="edgeStyle=orthogonalEdgeStyle;rounded=0;orthogonalLoop=1;jettySize=auto;html=1;" edge="1" parent="1" source="AE5Dq45fooWx5qyHSBE6-98">
          <mxGeometry relative="1" as="geometry">
            <mxPoint x="815.2856968470983" y="356.7143118722099" as="targetPoint" />
          </mxGeometry>
        </mxCell>
        <mxCell id="AE5Dq45fooWx5qyHSBE6-54" value="" style="shape=cylinder3;whiteSpace=wrap;html=1;boundedLbl=1;backgroundOutline=1;size=15;" vertex="1" parent="1">
          <mxGeometry x="377" y="617" width="39" height="57" as="geometry" />
        </mxCell>
        <mxCell id="AE5Dq45fooWx5qyHSBE6-56" value="ColumnDb" style="text;html=1;align=center;verticalAlign=middle;resizable=0;points=[];autosize=1;strokeColor=none;fillColor=none;" vertex="1" parent="1">
          <mxGeometry x="411" y="591" width="75" height="26" as="geometry" />
        </mxCell>
        <mxCell id="AE5Dq45fooWx5qyHSBE6-57" value="" style="outlineConnect=0;dashed=0;verticalLabelPosition=bottom;verticalAlign=top;align=center;html=1;shape=mxgraph.aws3.s3;fillColor=#E05243;gradientColor=none;" vertex="1" parent="1">
          <mxGeometry x="230" y="736.3" width="46" height="47" as="geometry" />
        </mxCell>
        <mxCell id="AE5Dq45fooWx5qyHSBE6-60" value="Tweet" style="text;html=1;align=center;verticalAlign=middle;resizable=0;points=[];autosize=1;strokeColor=none;fillColor=none;" vertex="1" parent="1">
          <mxGeometry x="-92" y="693" width="50" height="26" as="geometry" />
        </mxCell>
        <mxCell id="AE5Dq45fooWx5qyHSBE6-101" style="edgeStyle=orthogonalEdgeStyle;rounded=0;orthogonalLoop=1;jettySize=auto;html=1;" edge="1" parent="1" source="AE5Dq45fooWx5qyHSBE6-64">
          <mxGeometry relative="1" as="geometry">
            <mxPoint x="-102.55562337239598" y="695.6666666666665" as="targetPoint" />
          </mxGeometry>
        </mxCell>
        <mxCell id="AE5Dq45fooWx5qyHSBE6-64" value="" style="points=[];aspect=fixed;html=1;align=center;shadow=0;dashed=0;fillColor=#FF6A00;strokeColor=none;shape=mxgraph.alibaba_cloud.cdn_content_distribution_network;" vertex="1" parent="1">
          <mxGeometry x="-16" y="741" width="51" height="42.3" as="geometry" />
        </mxCell>
        <mxCell id="AE5Dq45fooWx5qyHSBE6-70" style="edgeStyle=orthogonalEdgeStyle;rounded=0;orthogonalLoop=1;jettySize=auto;html=1;" edge="1" parent="1" source="AE5Dq45fooWx5qyHSBE6-65">
          <mxGeometry relative="1" as="geometry">
            <mxPoint x="35.600067138671875" y="756.2000122070312" as="targetPoint" />
          </mxGeometry>
        </mxCell>
        <mxCell id="AE5Dq45fooWx5qyHSBE6-65" value="" style="image;html=1;image=img/lib/clip_art/computers/Server_Rack_128x128.png" vertex="1" parent="1">
          <mxGeometry x="96" y="745" width="74" height="75" as="geometry" />
        </mxCell>
        <mxCell id="AE5Dq45fooWx5qyHSBE6-68" value="Media Service" style="text;html=1;align=center;verticalAlign=middle;resizable=0;points=[];autosize=1;strokeColor=none;fillColor=none;" vertex="1" parent="1">
          <mxGeometry x="116" y="705" width="94" height="26" as="geometry" />
        </mxCell>
        <mxCell id="AE5Dq45fooWx5qyHSBE6-69" style="edgeStyle=orthogonalEdgeStyle;rounded=0;orthogonalLoop=1;jettySize=auto;html=1;entryX=0;entryY=0.5;entryDx=0;entryDy=0;entryPerimeter=0;" edge="1" parent="1" source="AE5Dq45fooWx5qyHSBE6-65" target="AE5Dq45fooWx5qyHSBE6-57">
          <mxGeometry relative="1" as="geometry" />
        </mxCell>
        <mxCell id="AE5Dq45fooWx5qyHSBE6-80" style="edgeStyle=orthogonalEdgeStyle;rounded=0;orthogonalLoop=1;jettySize=auto;html=1;" edge="1" parent="1" source="AE5Dq45fooWx5qyHSBE6-74" target="AE5Dq45fooWx5qyHSBE6-79">
          <mxGeometry relative="1" as="geometry" />
        </mxCell>
        <mxCell id="AE5Dq45fooWx5qyHSBE6-74" value="" style="image;html=1;image=img/lib/clip_art/computers/Server_Rack_128x128.png" vertex="1" parent="1">
          <mxGeometry x="776" y="268" width="80" height="80" as="geometry" />
        </mxCell>
        <mxCell id="AE5Dq45fooWx5qyHSBE6-78" value="Timeline Service" style="text;html=1;align=center;verticalAlign=middle;resizable=0;points=[];autosize=1;strokeColor=none;fillColor=none;" vertex="1" parent="1">
          <mxGeometry x="710" y="237.1" width="106" height="26" as="geometry" />
        </mxCell>
        <mxCell id="AE5Dq45fooWx5qyHSBE6-79" value="" style="image;sketch=0;aspect=fixed;html=1;points=[];align=center;fontSize=12;image=img/lib/mscae/Cache_Redis_Product.svg;" vertex="1" parent="1">
          <mxGeometry x="700" y="386" width="50" height="42" as="geometry" />
        </mxCell>
        <mxCell id="AE5Dq45fooWx5qyHSBE6-85" style="edgeStyle=orthogonalEdgeStyle;rounded=0;orthogonalLoop=1;jettySize=auto;html=1;entryX=0.75;entryY=1;entryDx=0;entryDy=0;" edge="1" parent="1" source="AE5Dq45fooWx5qyHSBE6-82" target="AE5Dq45fooWx5qyHSBE6-74">
          <mxGeometry relative="1" as="geometry">
            <mxPoint x="860.9999825613841" y="904.1427699497767" as="targetPoint" />
          </mxGeometry>
        </mxCell>
        <mxCell id="AE5Dq45fooWx5qyHSBE6-109" style="edgeStyle=orthogonalEdgeStyle;rounded=0;orthogonalLoop=1;jettySize=auto;html=1;entryX=0;entryY=0.75;entryDx=0;entryDy=0;" edge="1" parent="1" source="AE5Dq45fooWx5qyHSBE6-82" target="AE5Dq45fooWx5qyHSBE6-108">
          <mxGeometry relative="1" as="geometry" />
        </mxCell>
        <mxCell id="AE5Dq45fooWx5qyHSBE6-82" value="" style="points=[];aspect=fixed;html=1;align=center;shadow=0;dashed=0;fillColor=#FF6A00;strokeColor=none;shape=mxgraph.alibaba_cloud.alb_application_load_balancer_01;" vertex="1" parent="1">
          <mxGeometry x="10.8" y="926" width="50.7" height="43" as="geometry" />
        </mxCell>
        <mxCell id="AE5Dq45fooWx5qyHSBE6-83" style="edgeStyle=orthogonalEdgeStyle;rounded=0;orthogonalLoop=1;jettySize=auto;html=1;entryX=0.134;entryY=0.714;entryDx=0;entryDy=0;entryPerimeter=0;" edge="1" parent="1" source="AE5Dq45fooWx5qyHSBE6-46" target="AE5Dq45fooWx5qyHSBE6-82">
          <mxGeometry relative="1" as="geometry">
            <Array as="points">
              <mxPoint x="-87" y="951" />
              <mxPoint x="18" y="951" />
            </Array>
          </mxGeometry>
        </mxCell>
        <mxCell id="AE5Dq45fooWx5qyHSBE6-84" value="User/Home Timeline&lt;br&gt;Search UI" style="text;html=1;align=center;verticalAlign=middle;resizable=0;points=[];autosize=1;strokeColor=none;fillColor=none;" vertex="1" parent="1">
          <mxGeometry x="-151" y="954" width="127" height="41" as="geometry" />
        </mxCell>
        <mxCell id="AE5Dq45fooWx5qyHSBE6-90" style="edgeStyle=orthogonalEdgeStyle;rounded=0;orthogonalLoop=1;jettySize=auto;html=1;entryX=0.25;entryY=1;entryDx=0;entryDy=0;" edge="1" parent="1" source="AE5Dq45fooWx5qyHSBE6-86" target="AE5Dq45fooWx5qyHSBE6-74">
          <mxGeometry relative="1" as="geometry" />
        </mxCell>
        <mxCell id="AE5Dq45fooWx5qyHSBE6-94" style="edgeStyle=orthogonalEdgeStyle;rounded=0;orthogonalLoop=1;jettySize=auto;html=1;entryX=0.301;entryY=1.054;entryDx=0;entryDy=0;entryPerimeter=0;" edge="1" parent="1" source="AE5Dq45fooWx5qyHSBE6-86" target="AE5Dq45fooWx5qyHSBE6-50">
          <mxGeometry relative="1" as="geometry">
            <mxPoint x="513.5714808872772" y="717.8571079799108" as="targetPoint" />
            <Array as="points">
              <mxPoint x="519" y="743" />
            </Array>
          </mxGeometry>
        </mxCell>
        <mxCell id="AE5Dq45fooWx5qyHSBE6-86" value="" style="image;html=1;image=img/lib/clip_art/computers/Server_Rack_128x128.png" vertex="1" parent="1">
          <mxGeometry x="700" y="703.3" width="80" height="80" as="geometry" />
        </mxCell>
        <mxCell id="AE5Dq45fooWx5qyHSBE6-87" value="Tweet Processor" style="text;html=1;align=center;verticalAlign=middle;resizable=0;points=[];autosize=1;strokeColor=none;fillColor=none;" vertex="1" parent="1">
          <mxGeometry x="710" y="818" width="107" height="26" as="geometry" />
        </mxCell>
        <mxCell id="AE5Dq45fooWx5qyHSBE6-92" value="It will generate the timeline based on&lt;br&gt;active, passive, inactive, live and in case of live&lt;br&gt;user it will sent an event&lt;div&gt;&lt;br&gt;&lt;/div&gt;" style="text;html=1;align=center;verticalAlign=middle;resizable=0;points=[];autosize=1;strokeColor=none;fillColor=none;" vertex="1" parent="1">
          <mxGeometry x="486" y="762" width="268" height="70" as="geometry" />
        </mxCell>
        <mxCell id="AE5Dq45fooWx5qyHSBE6-97" value="Live Update to user about new updates" style="text;html=1;align=center;verticalAlign=middle;resizable=0;points=[];autosize=1;strokeColor=none;fillColor=none;" vertex="1" parent="1">
          <mxGeometry x="184" y="551" width="227" height="26" as="geometry" />
        </mxCell>
        <mxCell id="AE5Dq45fooWx5qyHSBE6-99" value="Tweet Service&lt;div&gt;&lt;br&gt;&lt;/div&gt;" style="text;html=1;align=center;verticalAlign=middle;resizable=0;points=[];autosize=1;strokeColor=none;fillColor=none;" vertex="1" parent="1">
          <mxGeometry x="585" y="577" width="93" height="41" as="geometry" />
        </mxCell>
        <mxCell id="AE5Dq45fooWx5qyHSBE6-100" value="" style="edgeStyle=orthogonalEdgeStyle;rounded=0;orthogonalLoop=1;jettySize=auto;html=1;" edge="1" parent="1" source="AE5Dq45fooWx5qyHSBE6-54" target="AE5Dq45fooWx5qyHSBE6-98">
          <mxGeometry relative="1" as="geometry">
            <mxPoint x="815.2856968470983" y="356.7143118722099" as="targetPoint" />
            <mxPoint x="416" y="645" as="sourcePoint" />
          </mxGeometry>
        </mxCell>
        <mxCell id="AE5Dq45fooWx5qyHSBE6-98" value="" style="image;html=1;image=img/lib/clip_art/computers/Server_Rack_128x128.png" vertex="1" parent="1">
          <mxGeometry x="599" y="599" width="80" height="80" as="geometry" />
        </mxCell>
        <mxCell id="AE5Dq45fooWx5qyHSBE6-113" style="edgeStyle=orthogonalEdgeStyle;rounded=0;orthogonalLoop=1;jettySize=auto;html=1;" edge="1" parent="1" source="AE5Dq45fooWx5qyHSBE6-102" target="AE5Dq45fooWx5qyHSBE6-112">
          <mxGeometry relative="1" as="geometry">
            <Array as="points">
              <mxPoint x="1071" y="809" />
            </Array>
          </mxGeometry>
        </mxCell>
        <mxCell id="AE5Dq45fooWx5qyHSBE6-102" value="" style="image;html=1;image=img/lib/clip_art/computers/Server_Rack_128x128.png" vertex="1" parent="1">
          <mxGeometry x="933" y="741" width="80" height="80" as="geometry" />
        </mxCell>
        <mxCell id="AE5Dq45fooWx5qyHSBE6-104" value="Search Builder" style="text;html=1;align=center;verticalAlign=middle;resizable=0;points=[];autosize=1;strokeColor=none;fillColor=none;" vertex="1" parent="1">
          <mxGeometry x="918" y="832" width="97" height="26" as="geometry" />
        </mxCell>
        <mxCell id="AE5Dq45fooWx5qyHSBE6-105" value="" style="outlineConnect=0;dashed=0;verticalLabelPosition=bottom;verticalAlign=top;align=center;html=1;shape=mxgraph.aws3.elasticsearch_service;fillColor=#F58534;gradientColor=none;" vertex="1" parent="1">
          <mxGeometry x="1059" y="668" width="67.5" height="81" as="geometry" />
        </mxCell>
        <mxCell id="AE5Dq45fooWx5qyHSBE6-106" style="edgeStyle=orthogonalEdgeStyle;rounded=0;orthogonalLoop=1;jettySize=auto;html=1;entryX=0.5;entryY=1;entryDx=0;entryDy=0;entryPerimeter=0;" edge="1" parent="1" source="AE5Dq45fooWx5qyHSBE6-102" target="AE5Dq45fooWx5qyHSBE6-105">
          <mxGeometry relative="1" as="geometry" />
        </mxCell>
        <mxCell id="AE5Dq45fooWx5qyHSBE6-107" value="Elastic Search" style="text;html=1;align=center;verticalAlign=middle;resizable=0;points=[];autosize=1;strokeColor=none;fillColor=none;" vertex="1" parent="1">
          <mxGeometry x="1096" y="741" width="95" height="26" as="geometry" />
        </mxCell>
        <mxCell id="AE5Dq45fooWx5qyHSBE6-108" value="" style="image;html=1;image=img/lib/clip_art/computers/Server_Rack_128x128.png" vertex="1" parent="1">
          <mxGeometry x="235" y="1000" width="80" height="80" as="geometry" />
        </mxCell>
        <mxCell id="AE5Dq45fooWx5qyHSBE6-110" style="edgeStyle=orthogonalEdgeStyle;rounded=0;orthogonalLoop=1;jettySize=auto;html=1;entryX=0.285;entryY=1.197;entryDx=0;entryDy=0;entryPerimeter=0;" edge="1" parent="1" source="AE5Dq45fooWx5qyHSBE6-108" target="AE5Dq45fooWx5qyHSBE6-107">
          <mxGeometry relative="1" as="geometry" />
        </mxCell>
        <mxCell id="AE5Dq45fooWx5qyHSBE6-111" value="Seach Service" style="text;html=1;align=center;verticalAlign=middle;resizable=0;points=[];autosize=1;strokeColor=none;fillColor=none;" vertex="1" parent="1">
          <mxGeometry x="294" y="1070" width="95" height="26" as="geometry" />
        </mxCell>
        <mxCell id="AE5Dq45fooWx5qyHSBE6-112" value="" style="image;sketch=0;aspect=fixed;html=1;points=[];align=center;fontSize=12;image=img/lib/mscae/Cache_Redis_Product.svg;" vertex="1" parent="1">
          <mxGeometry x="1046" y="832" width="50" height="42" as="geometry" />
        </mxCell>
      </root>
    </mxGraphModel>
  </diagram>
</mxfile>
